PathFileType	4	(X/Y/Z)	C:\Users\WrightLab\Desktop\Jo\P2_Trial11.trc
DataRate	CameraRate	NumFrames	NumMarkers	Units	OrigDataRate	OrigDataStartFrame	OrigNumFrames
100.00	100.00	      72	19	mm	100.00	146	      1163
Frame#	Time	Headset_Front			Headset_Back			Headset_Left			Headset_Right			Left_Shoulder			Right_Shoulder			Sternum			C7			Left Elbow			Right Elbow			Left Wrist			Right Wrist			Left ASIS			Right ASIS			S2			Left Knee			Right Knee			Left Ankle			Right Ankle			
		X1	Y1	Z1	X2	Y2	Z2	X3	Y3	Z3	X4	Y4	Z4	X5	Y5	Z5	X6	Y6	Z6	X7	Y7	Z7	X8	Y8	Z8	X9	Y9	Z9	X10	Y10	Z10	X11	Y11	Z11	X12	Y12	Z12	X13	Y13	Z13	X14	Y14	Z14	X15	Y15	Z15	X16	Y16	Z16	X17	Y17	Z17	X18	Y18	Z18	X19	Y19	Z19	

146	1.450																						-147.26535	1502.60657	2537.77393																			-171.79979	1014.20740	2587.68530													
147	1.460																						-144.96793	1502.87219	2536.71118																			-169.44426	1014.34570	2586.55811													
148	1.470																						-142.61357	1502.43091	2534.95947																			-167.24501	1014.14203	2584.95264													
149	1.480																						-140.23067	1502.46619	2534.38696																			-164.44003	1014.16211	2583.46069													
150	1.490																						-137.50787	1502.69604	2532.54565																			-161.48911	1014.63428	2582.33252													
151	1.500																						-135.18562	1502.13770	2530.99365																			-158.91176	1013.80273	2580.44336													
152	1.510																						-132.73323	1502.17334	2529.91333																			-155.87859	1013.88184	2578.46802													
153	1.520																						-130.25105	1502.07727	2528.85181																			-152.65216	1013.83893	2577.26392													
154	1.530																						-128.05659	1502.36682	2527.60669																			-149.69402	1013.23389	2574.90552													
155	1.540																						-126.28028	1502.71240	2526.56763																			-146.88315	1012.71362	2572.89990													
156	1.550																						-123.49060	1502.23438	2525.20898																			-144.18900	1013.00824	2571.78125													
157	1.560																						-121.34980	1502.75842	2523.96802																			-141.25949	1012.89203	2569.51807													
158	1.570																						-119.23637	1502.48877	2522.29932																			-139.26039	1012.81323	2567.77686													
159	1.580																						-117.13156	1502.03845	2520.77686																			-137.39557	1012.75549	2566.26685													
160	1.590																						-115.08631	1501.94153	2519.60205																			-135.14104	1013.31482	2564.97803													
161	1.600																						-113.27834	1502.42346	2518.61914																			-132.99425	1013.55878	2563.79346													
162	1.610																						-111.40588	1502.42139	2517.45605																			-130.69295	1013.47522	2561.58813													
163	1.620																						-109.29372	1502.17944	2515.73706																			-129.36687	1014.01904	2560.28125													
164	1.630																						-107.21130	1502.51074	2513.75098																			-127.40935	1014.16486	2558.30737													
165	1.640																						-104.77472	1502.28357	2512.26807																			-125.29956	1013.85797	2556.21362													
166	1.650																						-102.83275	1502.41614	2511.15527																			-123.82423	1014.15100	2555.21558													
167	1.660																						-100.99097	1502.88062	2509.91162																			-121.72297	1014.10468	2553.64233													
168	1.670																						-98.99155	1502.80835	2508.34692																			-119.77064	1014.18146	2551.94189													
169	1.680																						-96.68924	1502.27588	2506.49927																			-118.16241	1014.49719	2551.02490													
170	1.690																						-94.65942	1502.64758	2505.16040																			-116.15633	1013.85040	2548.97363													
171	1.700																						-92.82877	1502.79492	2503.82471																			-114.51582	1013.47882	2547.07520													
172	1.710																						-91.02405	1502.85999	2502.66943																			-113.39737	1013.67487	2546.13794													
173	1.720																						-88.75584	1502.45190	2500.49219																			-111.41264	1013.39923	2545.07520													
174	1.730																						-87.02144	1502.74817	2498.96509																			-109.92303	1013.76758	2544.08862													
175	1.740																						-84.94822	1502.55933	2496.93628																			-108.37794	1014.41357	2543.03003													
176	1.750																						-83.45103	1502.98608	2496.08496																			-106.63577	1014.12469	2541.85645													
177	1.760																						-81.57313	1503.34192	2494.40308																			-105.29234	1014.41437	2540.59766													
178	1.770							-228.49016	1682.37207	2320.23291													-79.35418	1503.12329	2492.70898																			-103.81945	1014.73358	2539.37061													
179	1.780							-226.54170	1682.61877	2318.73926													-77.21238	1503.43030	2490.48438																			-102.89884	1015.36609	2538.94092													
180	1.790							-224.30573	1682.67102	2316.85620													-75.19108	1503.13562	2488.59717																			-101.78413	1016.00500	2538.29419													
181	1.800							-222.20384	1683.02136	2315.16992													-73.68737	1503.47925	2487.10596																			-100.30143	1016.20514	2537.26831													
182	1.810							-220.17091	1682.64465	2313.22852													-71.82375	1503.65576	2484.88330																			-99.45506	1016.79358	2537.17603													
183	1.820							-218.53479	1682.80273	2311.24463													-69.73145	1503.18848	2482.97290																			-97.66126	1016.29291	2535.51733													
184	1.830							-216.69534	1682.68628	2308.86279													-67.83171	1503.41492	2480.84131																			-96.62817	1016.70612	2534.93579													
185	1.840							-215.05754	1682.48718	2306.85938													-65.86910	1503.44006	2478.72827																			-95.64913	1016.89703	2534.28516													
186	1.850							-213.26724	1682.24121	2304.47388													-64.34888	1503.38513	2477.29736																			-94.59873	1016.97668	2532.94556													
187	1.860							-211.88104	1681.83093	2302.54077													-62.47209	1503.69275	2474.72217																			-93.87077	1017.07648	2532.19067													
188	1.870							-210.17311	1681.45728	2299.82397													-60.83322	1503.54480	2472.72974																			-92.58940	1016.44598	2530.71777													
189	1.880							-208.69727	1680.94788	2297.41382													-59.78977	1504.07239	2471.04321																			-91.56347	1016.51917	2529.25293													
190	1.890							-207.74622	1680.64832	2295.59961													-58.06919	1503.87256	2468.42480																			-90.66789	1016.65283	2528.23315													
191	1.900							-206.41478	1680.13562	2292.98193													-56.81532	1503.82275	2466.29419																			-89.68341	1016.83698	2526.81738													
192	1.910							-204.92885	1679.26941	2289.89136													-55.91561	1504.63281	2464.23340																			-89.09875	1017.15466	2525.64307													
193	1.920							-204.13936	1678.99670	2287.75317													-54.25479	1504.29163	2461.46533																			-88.87158	1017.53192	2524.52466													
194	1.930							-203.02353	1678.38391	2284.48633													-53.72725	1505.23083	2459.53027																			-88.06550	1017.42169	2522.37891													
195	1.940							-201.92337	1677.83386	2280.81909													-52.24958	1505.19995	2456.68237																			-88.29402	1017.85120	2521.12842													
196	1.950							-201.49249	1677.70508	2277.97607													-51.34751	1505.94812	2454.15845																			-87.88879	1018.01166	2519.05957													
197	1.960							-200.44814	1677.00403	2274.92773													-50.13874	1506.52490	2451.18115																			-88.13107	1018.28809	2517.68018													
198	1.970							-199.86899	1676.56250	2271.99585													-49.34563	1506.61121	2448.86011																			-87.97852	1018.72125	2515.89087													
199	1.980							-198.98102	1675.76062	2268.38379													-48.04234	1506.94470	2445.30884																			-88.09183	1019.20178	2514.73511													
200	1.990							-198.56497	1675.31531	2265.51685				-234.67856	1518.50549	2344.22339							-47.63976	1507.49597	2442.97388																			-87.86409	1019.36609	2512.67285													
201	2.000							-197.61224	1674.66528	2262.07788				-233.67122	1518.83044	2340.61328							-46.25602	1507.41528	2439.42212																			-86.98305	1018.86237	2509.63672													
202	2.010							-197.16217	1674.05737	2259.28906				-233.02695	1519.09668	2337.34204							-46.11259	1508.24561	2436.81372																			-87.27982	1019.07550	2507.90381													
203	2.020							-196.60492	1673.22595	2255.72412				-232.17247	1518.90576	2332.90063							-45.11218	1508.28638	2433.43042																			-87.11717	1019.45135	2505.87085													
204	2.030							-196.07964	1672.21191	2252.66431				-231.46815	1518.98645	2329.90430							-44.73539	1508.80518	2430.30542																			-87.11578	1019.62561	2504.35474													
205	2.040							-195.68436	1671.53235	2249.57959				-230.73431	1518.90625	2325.85498							-43.79024	1508.57544	2426.49561																			-86.92308	1019.55237	2501.90674													
206	2.050							-195.40898	1670.47314	2245.96362				-230.14417	1519.18323	2321.81104							-43.54970	1509.14063	2423.74194																			-86.20586	1018.94165	2498.57788													
207	2.060							-194.80743	1669.52124	2242.13330				-229.39709	1518.80249	2318.29810							-42.87766	1509.44153	2419.83911																			-86.50580	1019.19769	2497.03564													
208	2.070							-194.88188	1668.80981	2239.18555				-229.03947	1519.25916	2314.53394							-42.37656	1509.25171	2416.34473																			-86.34029	1019.41229	2494.64624													
209	2.080							-194.39972	1667.23010	2234.72827				-228.42162	1519.11743	2310.49170							-42.05475	1509.54138	2413.10278																			-86.33338	1019.29517	2492.01611													
210	2.090							-194.79492	1666.38184	2231.93481				-227.78252	1519.12732	2306.95996							-41.44221	1509.32544	2409.15381																			-86.51772	1019.33313	2489.40283													
211	2.100							-194.80640	1665.00403	2227.69482				-227.22478	1518.68298	2302.80859							-41.07734	1509.70801	2405.51855																			-86.39188	1019.44409	2486.81836													
212	2.110							-194.91763	1663.77930	2224.06763				-226.72379	1518.48462	2298.77954							-40.37421	1509.29260	2401.45068																			-86.20734	1018.82349	2482.89526													
213	2.120							-195.72748	1662.53711	2220.79736				-225.89943	1518.27832	2295.01050							-39.99107	1509.13855	2397.67578																			-86.63414	1018.91394	2480.72192													
214	2.130							-195.88191	1660.86804	2216.46387				-225.48399	1518.20447	2291.00830							-39.17331	1508.96167	2393.90674																			-86.71021	1019.17792	2477.41162													
215	2.140							-196.27289	1659.29443	2211.93994				-224.87691	1517.53113	2286.82788							-39.03407	1508.75793	2390.00415																			-86.84873	1018.83301	2473.73486													
216	2.150							-197.07442	1658.00488	2208.47021				-224.23543	1517.10181	2282.60913							-38.31436	1508.16748	2385.41846																			-87.69886	1019.07367	2471.13843													
217	2.160							-197.85394	1656.62964	2204.65063				-224.12326	1516.55640	2278.57886							-38.25240	1507.77625	2381.91455																			-88.01138	1018.54388	2467.26880													
